{
	"patcher" : 	{
		"fileversion" : 1,
		"appversion" : 		{
			"major" : 8,
			"minor" : 6,
			"revision" : 2,
			"architecture" : "x64",
			"modernui" : 1
		}
,
		"classnamespace" : "box",
		"rect" : [ 59.0, 106.0, 536.0, 161.0 ],
		"bglocked" : 0,
		"openinpresentation" : 0,
		"default_fontsize" : 12.0,
		"default_fontface" : 0,
		"default_fontname" : "Lato",
		"gridonopen" : 1,
		"gridsize" : [ 15.0, 15.0 ],
		"gridsnaponopen" : 1,
		"objectsnaponopen" : 1,
		"statusbarvisible" : 2,
		"toolbarvisible" : 1,
		"lefttoolbarpinned" : 0,
		"toptoolbarpinned" : 0,
		"righttoolbarpinned" : 0,
		"bottomtoolbarpinned" : 0,
		"toolbars_unpinned_last_save" : 0,
		"tallnewobj" : 0,
		"boxanimatetime" : 200,
		"enablehscroll" : 1,
		"enablevscroll" : 1,
		"devicewidth" : 0.0,
		"description" : "",
		"digest" : "",
		"tags" : "",
		"style" : "bellplay-gui",
		"subpatcher_template" : "",
		"assistshowspatchername" : 0,
		"boxes" : [ 			{
				"box" : 				{
					"id" : "obj-6",
					"maxclass" : "newobj",
					"numinlets" : 1,
					"numoutlets" : 0,
					"patching_rect" : [ 11.0, 126.0, 79.0, 23.0 ],
					"text" : "ears.mc.out~"
				}

			}
, 			{
				"box" : 				{
					"id" : "obj-4",
					"maxclass" : "newobj",
					"numinlets" : 6,
					"numoutlets" : 1,
					"outlettype" : [ "multichannelsignal" ],
					"patching_rect" : [ 11.0, 84.0, 509.0, 23.0 ],
					"text" : "mc.scale~ 0. 1. 0. 1."
				}

			}
, 			{
				"box" : 				{
					"id" : "obj-3",
					"maxclass" : "newobj",
					"numinlets" : 1,
					"numoutlets" : 5,
					"outlettype" : [ "", "", "", "", "bang" ],
					"patching_rect" : [ 109.0, 44.0, 411.0, 23.0 ],
					"saved_object_attributes" : 					{
						"versionnumber" : 80300
					}
,
					"text" : "bach.keys inmin inmax outmin outmax @out m"
				}

			}
, 			{
				"box" : 				{
					"id" : "obj-2",
					"maxclass" : "newobj",
					"numinlets" : 1,
					"numoutlets" : 1,
					"outlettype" : [ "" ],
					"patching_rect" : [ 109.0, 9.0, 100.0, 23.0 ],
					"text" : "ears.in @direct 1"
				}

			}
, 			{
				"box" : 				{
					"id" : "obj-1",
					"maxclass" : "newobj",
					"numinlets" : 1,
					"numoutlets" : 1,
					"outlettype" : [ "multichannelsignal" ],
					"patching_rect" : [ 11.0, 44.0, 71.0, 23.0 ],
					"text" : "ears.mc.in~"
				}

			}
 ],
		"lines" : [ 			{
				"patchline" : 				{
					"destination" : [ "obj-4", 0 ],
					"source" : [ "obj-1", 0 ]
				}

			}
, 			{
				"patchline" : 				{
					"destination" : [ "obj-3", 0 ],
					"source" : [ "obj-2", 0 ]
				}

			}
, 			{
				"patchline" : 				{
					"destination" : [ "obj-4", 4 ],
					"source" : [ "obj-3", 3 ]
				}

			}
, 			{
				"patchline" : 				{
					"destination" : [ "obj-4", 3 ],
					"source" : [ "obj-3", 2 ]
				}

			}
, 			{
				"patchline" : 				{
					"destination" : [ "obj-4", 2 ],
					"source" : [ "obj-3", 1 ]
				}

			}
, 			{
				"patchline" : 				{
					"destination" : [ "obj-4", 1 ],
					"source" : [ "obj-3", 0 ]
				}

			}
, 			{
				"patchline" : 				{
					"destination" : [ "obj-6", 0 ],
					"source" : [ "obj-4", 0 ]
				}

			}
 ],
		"dependency_cache" : [ 			{
				"name" : "bach.keys.mxo",
				"type" : "iLaX"
			}
, 			{
				"name" : "ears.in.mxo",
				"type" : "iLaX"
			}
, 			{
				"name" : "ears.mc.in~.mxo",
				"type" : "iLaX"
			}
, 			{
				"name" : "ears.mc.out~.mxo",
				"type" : "iLaX"
			}
 ],
		"autosave" : 0,
		"styles" : [ 			{
				"name" : "bellplay-gui",
				"default" : 				{
					"accentcolor" : [ 0.588235294117647, 0.588235294117647, 0.588235294117647, 1.0 ],
					"bgcolor" : [ 1.0, 1.0, 1.0, 1.0 ],
					"bgfillcolor" : 					{
						"angle" : 270.0,
						"autogradient" : 0.0,
						"color" : [ 0.717647058823529, 0.717647058823529, 0.717647058823529, 1.0 ],
						"color1" : [ 0.301961, 0.301961, 0.301961, 1.0 ],
						"color2" : [ 0.2, 0.2, 0.2, 1.0 ],
						"proportion" : 0.5,
						"type" : "color"
					}
,
					"color" : [ 0.274509803921569, 0.274509803921569, 0.274509803921569, 1.0 ],
					"editing_bgcolor" : [ 0.925490196078431, 0.925490196078431, 0.925490196078431, 1.0 ],
					"fontname" : [ "Lato" ],
					"locked_bgcolor" : [ 0.925490196078431, 0.925490196078431, 0.925490196078431, 1.0 ],
					"selectioncolor" : [ 0.533333333333333, 0.784313725490196, 0.831372549019608, 1.0 ],
					"textcolor_inverse" : [ 0.149019607843137, 0.149019607843137, 0.149019607843137, 1.0 ]
				}
,
				"parentstyle" : "",
				"multi" : 0
			}
 ]
	}

}
